<svg class="icon" viewBox="0 0 1024 1024" xmlns="http://www.w3.org/2000/svg" width="13" height="13"><defs><style/></defs><path d="M724.992 58.027c-84.31 0-162.475 42.325-214.016 111.957C459.435 100.352 380.928 58.027 296.96 58.027c-151.893 0-275.456 135.168-275.456 301.056 0 98.986 44.373 168.277 79.872 224.256C204.8 745.472 464.555 947.2 475.477 955.733c10.582 8.192 22.87 12.288 35.499 12.288 12.288 0 24.917-4.096 35.157-12.288 10.923-8.533 271.019-210.261 374.102-372.394 35.498-55.979 79.872-125.27 79.872-224.256 0-165.888-123.563-301.056-275.115-301.056zm0 0"/></svg>