<svg class="icon" viewBox="0 0 1024 1024" xmlns="http://www.w3.org/2000/svg" width="13" height="13"><defs><style/></defs><path d="M877.55 789.7L741.735 653.884c-13.392-13.39-31.237-19.537-48.766-18.583l-26.885-26.885c37.358-49.881 59.487-111.82 59.487-178.932 0-165.013-133.767-298.78-298.78-298.78-165.01 0-298.778 133.767-298.778 298.78 0 165.01 133.767 298.778 298.778 298.778 67.113 0 129.052-22.129 178.934-59.486l26.88 26.884c-.95 17.53 5.197 35.376 18.588 48.767l135.816 135.816c25.002 25.005 65.541 25.005 90.543 0 25.005-25.002 25.005-65.54 0-90.541zM426.79 614.934c-102.256 0-185.446-83.19-185.446-185.45 0-102.257 83.19-185.448 185.446-185.448 102.261 0 185.452 83.19 185.452 185.448 0 102.259-83.192 185.45-185.452 185.45zm0 0"/></svg>